<svg id="Layer_1" enable-background="new 0 0 256 256" height="512" viewBox="0 0 256 256" width="512" xmlns="http://www.w3.org/2000/svg"><g><g><g><path d="m48.411 26.346c-.973 11.564-13.024 13.39-13.024 13.39 10.347.487 12.925 14.059 12.925 14.059.221-9.677 13.321-14.202 13.321-14.202-9.813-.588-13.222-13.247-13.222-13.247z" fill="#d6df58"/></g></g><g><g><path d="m61.723 38.095c-8.604-.515-11.832-12.024-11.863-12.141-.19-.702-.842-1.158-1.584-1.102-.725.066-1.298.642-1.359 1.367-.859 10.215-11.312 11.964-11.754 12.033-.763.115-1.313.79-1.273 1.561.04.77.657 1.384 1.428 1.421 9.027.425 11.498 12.718 11.521 12.842.138.711.76 1.217 1.473 1.217.042 0 .084-.001.126-.005.764-.064 1.357-.693 1.375-1.459.194-8.509 12.191-12.777 12.312-12.819.676-.235 1.092-.914.994-1.623s-.682-1.249-1.396-1.292zm-13.567 10.346c-1.356-3.13-3.709-6.907-7.587-8.876 2.931-1.405 6.409-3.913 8.202-8.272 1.551 3.071 4.2 6.88 8.334 8.722-3.006 1.639-6.922 4.405-8.949 8.426z" fill="#3a312a"/></g></g><g><g><path d="m26.712 43.327c-.689 8.179-9.212 9.471-9.212 9.471 7.318.344 9.142 9.944 9.142 9.944.156-6.844 9.422-10.045 9.422-10.045-6.941-.416-9.352-9.37-9.352-9.37z" fill="#d6df58"/></g></g><g><g><path d="m36.154 51.198c-5.767-.345-7.973-8.185-7.995-8.264-.189-.702-.865-1.16-1.581-1.102-.726.065-1.3.643-1.361 1.368-.578 6.871-7.646 8.067-7.941 8.114-.763.115-1.313.79-1.273 1.561.04.77.657 1.384 1.428 1.421 6.035.284 7.724 8.644 7.739 8.726.136.713.759 1.22 1.473 1.22.041 0 .083-.001.125-.005.765-.063 1.358-.694 1.376-1.461.13-5.709 8.331-8.634 8.412-8.662.676-.234 1.093-.913.996-1.622-.099-.709-.684-1.251-1.398-1.294zm-9.585 6.796c-.924-1.885-2.34-3.947-4.447-5.28 1.855-1.041 3.697-2.63 4.87-4.917 1.058 1.874 2.655 3.955 4.942 5.224-1.85 1.101-3.989 2.74-5.365 4.973z" fill="#3a312a"/></g></g><g><g><path d="m26.712 16.669c-.689 8.179-9.212 9.47-9.212 9.47 7.318.345 9.142 9.944 9.142 9.944.156-6.845 9.422-10.045 9.422-10.045-6.941-.414-9.352-9.369-9.352-9.369z" fill="#d6df58"/></g></g><g><g><path d="m36.154 24.541c-5.767-.345-7.973-8.185-7.995-8.264-.189-.702-.865-1.159-1.581-1.102-.726.065-1.3.643-1.361 1.368-.578 6.871-7.646 8.066-7.941 8.113-.763.115-1.313.79-1.273 1.561.04.77.657 1.384 1.428 1.421 6.035.284 7.724 8.644 7.739 8.726.136.712.759 1.22 1.473 1.22.041 0 .083-.001.125-.005.765-.063 1.358-.694 1.376-1.461.13-5.709 8.331-8.634 8.412-8.662.676-.234 1.093-.913.996-1.622-.099-.709-.684-1.25-1.398-1.293zm-9.585 6.795c-.924-1.886-2.34-3.947-4.447-5.28 1.855-1.042 3.697-2.63 4.87-4.917 1.058 1.874 2.655 3.955 4.941 5.224-1.848 1.101-3.988 2.741-5.364 4.973z" fill="#3a312a"/></g></g><g><g><path d="m222.395 74.831h-188.79c-9.447 0-17.105 7.658-17.105 17.105v130.289c0 9.447 7.658 17.105 17.105 17.105h188.789c9.447 0 17.105-7.658 17.105-17.105v-130.289c.001-9.447-7.657-17.105-17.104-17.105z" fill="#87796f"/></g></g><g><g><path d="m222.395 73.331h-76.037c-.828 0-1.5.671-1.5 1.5s.672 1.5 1.5 1.5h76.037c8.604 0 15.605 7 15.605 15.605v130.289c0 8.605-7.001 15.605-15.605 15.605h-188.79c-8.604 0-15.605-7-15.605-15.605v-130.289c0-8.605 7.001-15.605 15.605-15.605h98.703c.828 0 1.5-.671 1.5-1.5s-.672-1.5-1.5-1.5h-98.703c-10.258 0-18.605 8.346-18.605 18.605v130.289c0 10.259 8.347 18.605 18.605 18.605h188.789c10.259 0 18.605-8.346 18.605-18.605v-130.289c.001-10.259-8.346-18.605-18.604-18.605z" fill="#3a312a"/></g></g><g><g><path d="m215.906 89.247h-158.812c-4.194 0-7.594 3.4-7.594 7.594v120.479c0 4.194 3.4 7.594 7.594 7.594h158.811c4.194 0 7.594-3.4 7.594-7.594v-120.478c.001-4.195-3.399-7.595-7.593-7.595z" fill="#fae6ca"/></g></g><g><g><path d="m215.905 87.748h-158.81c-5.015 0-9.095 4.08-9.095 9.094v57.001c0 .829.672 1.5 1.5 1.5s1.5-.671 1.5-1.5v-57.001c0-3.36 2.734-6.094 6.095-6.094h158.811c3.36 0 6.095 2.734 6.095 6.094v120.478c0 3.36-2.734 6.094-6.095 6.094h-158.811c-3.36 0-6.095-2.734-6.095-6.094v-50.002c0-.829-.672-1.5-1.5-1.5s-1.5.671-1.5 1.5v50.002c0 5.015 4.08 9.094 9.095 9.094h158.811c5.015 0 9.095-4.08 9.095-9.094v-120.478c-.001-5.015-4.081-9.094-9.096-9.094z" fill="#3a312a"/></g></g><g><g><circle cx="32.5" cy="156.581" fill="#ef6d7a" r="8"/></g></g><g><g><path d="m32.5 147.081c-5.238 0-9.5 4.262-9.5 9.5s4.262 9.5 9.5 9.5 9.5-4.262 9.5-9.5-4.262-9.5-9.5-9.5zm0 16c-3.584 0-6.5-2.916-6.5-6.5s2.916-6.5 6.5-6.5 6.5 2.916 6.5 6.5-2.916 6.5-6.5 6.5z" fill="#3a312a"/></g></g><g><g><path d="m38.154 108.994h-10.308c-2.282 0-4.132 1.85-4.132 4.132s1.85 4.132 4.132 4.132h10.307c2.282 0 4.132-1.85 4.132-4.132.001-2.282-1.849-4.132-4.131-4.132z" fill="#89c4db"/></g></g><g><g><path d="m38.153 107.494h-10.306c-3.105 0-5.633 2.526-5.633 5.632s2.527 5.632 5.633 5.632h10.307c3.105 0 5.633-2.527 5.633-5.632s-2.528-5.632-5.634-5.632zm0 8.264h-10.306c-1.452 0-2.633-1.181-2.633-2.632s1.181-2.632 2.633-2.632h10.307c1.452 0 2.633 1.181 2.633 2.632-.001 1.451-1.182 2.632-2.634 2.632z" fill="#3a312a"/></g></g><g><g><path d="m38.154 127.346h-10.308c-2.282 0-4.132 1.85-4.132 4.132 0 2.282 1.85 4.132 4.132 4.132h10.307c2.282 0 4.132-1.85 4.132-4.132.001-2.281-1.849-4.132-4.131-4.132z" fill="#89c4db"/></g></g><g><g><path d="m38.153 125.847h-10.306c-3.105 0-5.633 2.526-5.633 5.632s2.527 5.632 5.633 5.632h10.307c3.105 0 5.633-2.527 5.633-5.632s-2.528-5.632-5.634-5.632zm0 8.264h-10.306c-1.452 0-2.633-1.181-2.633-2.632s1.181-2.632 2.633-2.632h10.307c1.452 0 2.633 1.181 2.633 2.632-.001 1.451-1.182 2.632-2.634 2.632z" fill="#3a312a"/></g></g><g><g><path d="m38.154 177.482h-10.308c-2.282 0-4.132 1.85-4.132 4.132s1.85 4.132 4.132 4.132h10.307c2.282 0 4.132-1.85 4.132-4.132s-1.849-4.132-4.131-4.132z" fill="#89c4db"/></g></g><g><g><path d="m38.153 175.982h-10.306c-3.105 0-5.633 2.526-5.633 5.632s2.527 5.632 5.633 5.632h10.307c3.105 0 5.633-2.527 5.633-5.632s-2.528-5.632-5.634-5.632zm0 8.265h-10.306c-1.452 0-2.633-1.181-2.633-2.632s1.181-2.632 2.633-2.632h10.307c1.452 0 2.633 1.181 2.633 2.632-.001 1.451-1.182 2.632-2.634 2.632z" fill="#3a312a"/></g></g><g><g><path d="m38.154 195.835h-10.308c-2.282 0-4.132 1.85-4.132 4.132s1.85 4.132 4.132 4.132h10.307c2.282 0 4.132-1.85 4.132-4.132.001-2.282-1.849-4.132-4.131-4.132z" fill="#89c4db"/></g></g><g><g><path d="m38.153 194.335h-10.306c-3.105 0-5.633 2.526-5.633 5.632s2.527 5.632 5.633 5.632h10.307c3.105 0 5.633-2.527 5.633-5.632s-2.528-5.632-5.634-5.632zm0 8.265h-10.306c-1.452 0-2.633-1.181-2.633-2.632s1.181-2.632 2.633-2.632h10.307c1.452 0 2.633 1.181 2.633 2.632-.001 1.451-1.182 2.632-2.634 2.632z" fill="#3a312a"/></g></g><g><g><path d="m90.486 77.211h157.928v19.015h-157.928z" fill="#ed6e7a" transform="matrix(.707 -.707 .707 .707 -11.688 145.219)"/></g></g><g><g><path d="m233.07 36.544-13.445-13.445c-.586-.586-1.535-.586-2.121 0l-111.673 111.672c-.281.281-.439.663-.439 1.061s.158.779.439 1.061l13.445 13.445c.293.293.677.439 1.061.439s.768-.146 1.061-.439l111.672-111.672c.281-.281.439-.663.439-1.061s-.157-.779-.439-1.061zm-112.733 110.612-11.324-11.324 109.551-109.551 11.324 11.324z" fill="#3a312a"/></g></g><g><g><path d="m101.981 104.961h79.439v19.015h-79.439z" fill="#89c4db" transform="matrix(.707 -.707 .707 .707 -39.438 133.725)"/></g></g><g><g><path d="m177.57 92.044-13.445-13.445c-.586-.586-1.535-.586-2.121 0l-56.173 56.172c-.281.281-.439.663-.439 1.061s.158.779.439 1.061l13.445 13.445c.293.293.677.439 1.061.439s.768-.146 1.061-.439l56.173-56.172c.281-.281.439-.663.439-1.061s-.158-.779-.44-1.061zm-57.233 55.112-11.324-11.324 54.052-54.051 11.324 11.324z" fill="#3a312a"/></g></g><g><g><path d="m106.892 135.832-8.416 21.861 21.861-8.416z" fill="#87796f"/></g></g><g><g><path d="m121.397 148.217-13.445-13.445c-.358-.359-.876-.513-1.372-.407-.496.105-.906.455-1.088.928l-8.416 21.861c-.214.554-.08 1.181.339 1.6.286.287.67.439 1.061.439.182 0 .364-.033.539-.1l21.861-8.416c.474-.183.823-.592.929-1.089.104-.496-.048-1.012-.408-1.371zm-20.308 6.863 6.374-16.556 10.182 10.182z" fill="#3a312a"/></g></g><g><g><path d="m236.715 19.454c-3.713-3.713-9.733-3.713-13.445 0l-4.706 4.706 13.445 13.446 4.706-4.706c3.713-3.713 3.713-9.733 0-13.446z" fill="#d5de58"/></g></g><g><g><path d="m237.776 18.394c-2.079-2.08-4.844-3.224-7.784-3.224s-5.704 1.145-7.783 3.224l-4.705 4.706c-.586.586-.586 1.536 0 2.121l13.445 13.445c.293.293.677.439 1.061.439s.768-.146 1.061-.439l4.706-4.706c4.29-4.292 4.29-11.275-.001-15.566zm-2.121 13.445-3.646 3.645-11.323-11.324 3.645-3.646c3.123-3.122 8.202-3.122 11.325 0 3.12 3.123 3.12 8.203-.001 11.325z" fill="#3a312a"/></g></g><g><g><path d="m215.906 90.75h-16c3.36 0 6.09 2.73 6.09 6.09v120.48c0 3.36-2.73 6.09-6.09 6.09h16c3.36 0 6.09-2.73 6.09-6.09v-120.48c0-3.36-2.73-6.09-6.09-6.09z" fill="#decaad"/></g></g></g></svg>